<mxfile host="app.diagrams.net" agent="Mozilla/5.0 (X11; Linux x86_64; rv:135.0) Gecko/20100101 Firefox/135.0" version="26.1.0">
  <diagram name="Page-1" id="2YBvvXClWsGukQMizWep">
    <mxGraphModel dx="1221" dy="692" grid="1" gridSize="10" guides="1" tooltips="1" connect="1" arrows="1" fold="1" page="1" pageScale="1" pageWidth="850" pageHeight="1100" math="1" shadow="0">
      <root>
        <mxCell id="0" />
        <mxCell id="1" parent="0" />
        <mxCell id="3km9dsXEY4e5crO_H5-b-27" style="edgeStyle=orthogonalEdgeStyle;rounded=0;orthogonalLoop=1;jettySize=auto;html=1;exitX=1;exitY=0.75;exitDx=0;exitDy=0;entryX=0;entryY=0.5;entryDx=0;entryDy=0;" parent="1" source="3km9dsXEY4e5crO_H5-b-1" target="3km9dsXEY4e5crO_H5-b-26" edge="1">
          <mxGeometry relative="1" as="geometry" />
        </mxCell>
        <mxCell id="3km9dsXEY4e5crO_H5-b-1" value="Perceptual Model" style="rounded=0;whiteSpace=wrap;html=1;" parent="1" vertex="1">
          <mxGeometry x="160" y="290" width="120" height="60" as="geometry" />
        </mxCell>
        <mxCell id="3km9dsXEY4e5crO_H5-b-23" value="" style="edgeStyle=orthogonalEdgeStyle;rounded=0;orthogonalLoop=1;jettySize=auto;html=1;endArrow=classic;endFill=1;entryX=0;entryY=0.5;entryDx=0;entryDy=0;" parent="1" source="3km9dsXEY4e5crO_H5-b-2" target="3km9dsXEY4e5crO_H5-b-24" edge="1">
          <mxGeometry relative="1" as="geometry">
            <mxPoint x="340" y="400" as="targetPoint" />
          </mxGeometry>
        </mxCell>
        <mxCell id="3km9dsXEY4e5crO_H5-b-2" value="MDCT" style="whiteSpace=wrap;html=1;rotation=0;" parent="1" vertex="1">
          <mxGeometry x="190" y="380" width="60" height="40" as="geometry" />
        </mxCell>
        <mxCell id="3km9dsXEY4e5crO_H5-b-22" value="" style="edgeStyle=orthogonalEdgeStyle;rounded=0;orthogonalLoop=1;jettySize=auto;html=1;" parent="1" source="3km9dsXEY4e5crO_H5-b-4" target="3km9dsXEY4e5crO_H5-b-19" edge="1">
          <mxGeometry relative="1" as="geometry" />
        </mxCell>
        <mxCell id="3km9dsXEY4e5crO_H5-b-4" value="MDCT" style="whiteSpace=wrap;html=1;rotation=0;" parent="1" vertex="1">
          <mxGeometry x="190" y="220" width="60" height="40" as="geometry" />
        </mxCell>
        <mxCell id="3km9dsXEY4e5crO_H5-b-5" value="&lt;div&gt;`x_L`&lt;/div&gt;" style="text;html=1;align=center;verticalAlign=middle;whiteSpace=wrap;rounded=0;" parent="1" vertex="1">
          <mxGeometry x="130" y="225" width="20" height="30" as="geometry" />
        </mxCell>
        <mxCell id="3km9dsXEY4e5crO_H5-b-6" value="" style="endArrow=classic;html=1;rounded=0;exitDx=0;exitDy=0;entryX=0;entryY=0.5;entryDx=0;entryDy=0;" parent="1" source="3km9dsXEY4e5crO_H5-b-9" target="3km9dsXEY4e5crO_H5-b-4" edge="1">
          <mxGeometry width="50" height="50" relative="1" as="geometry">
            <mxPoint x="400" y="400" as="sourcePoint" />
            <mxPoint x="450" y="350" as="targetPoint" />
          </mxGeometry>
        </mxCell>
        <mxCell id="3km9dsXEY4e5crO_H5-b-10" value="" style="endArrow=none;html=1;rounded=0;exitX=1;exitY=0.5;exitDx=0;exitDy=0;entryDx=0;entryDy=0;startFill=0;strokeColor=default;" parent="1" source="3km9dsXEY4e5crO_H5-b-5" target="3km9dsXEY4e5crO_H5-b-9" edge="1">
          <mxGeometry width="50" height="50" relative="1" as="geometry">
            <mxPoint x="150" y="240" as="sourcePoint" />
            <mxPoint x="200" y="240" as="targetPoint" />
          </mxGeometry>
        </mxCell>
        <mxCell id="3km9dsXEY4e5crO_H5-b-11" value="" style="edgeStyle=orthogonalEdgeStyle;rounded=0;orthogonalLoop=1;jettySize=auto;html=1;entryX=0.25;entryY=0;entryDx=0;entryDy=0;" parent="1" source="3km9dsXEY4e5crO_H5-b-9" target="3km9dsXEY4e5crO_H5-b-1" edge="1">
          <mxGeometry relative="1" as="geometry" />
        </mxCell>
        <mxCell id="3km9dsXEY4e5crO_H5-b-9" value="" style="shape=waypoint;sketch=0;fillStyle=solid;size=6;pointerEvents=1;points=[];fillColor=none;resizable=0;rotatable=0;perimeter=centerPerimeter;snapToPoint=1;" parent="1" vertex="1">
          <mxGeometry x="160" y="230" width="20" height="20" as="geometry" />
        </mxCell>
        <mxCell id="3km9dsXEY4e5crO_H5-b-14" value="&lt;div&gt;`x_R`&lt;/div&gt;" style="text;html=1;align=center;verticalAlign=middle;whiteSpace=wrap;rounded=0;" parent="1" vertex="1">
          <mxGeometry x="130" y="385" width="20" height="30" as="geometry" />
        </mxCell>
        <mxCell id="3km9dsXEY4e5crO_H5-b-15" value="" style="endArrow=classic;html=1;rounded=0;exitDx=0;exitDy=0;" parent="1" source="3km9dsXEY4e5crO_H5-b-16" edge="1">
          <mxGeometry width="50" height="50" relative="1" as="geometry">
            <mxPoint x="160" y="400" as="sourcePoint" />
            <mxPoint x="190" y="400" as="targetPoint" />
          </mxGeometry>
        </mxCell>
        <mxCell id="3km9dsXEY4e5crO_H5-b-17" value="" style="endArrow=none;html=1;rounded=0;exitX=1;exitY=0.5;exitDx=0;exitDy=0;strokeColor=default;startFill=0;" parent="1" source="3km9dsXEY4e5crO_H5-b-14" target="3km9dsXEY4e5crO_H5-b-16" edge="1">
          <mxGeometry width="50" height="50" relative="1" as="geometry">
            <mxPoint x="150" y="400" as="sourcePoint" />
            <mxPoint x="200" y="400" as="targetPoint" />
          </mxGeometry>
        </mxCell>
        <mxCell id="3km9dsXEY4e5crO_H5-b-18" value="" style="edgeStyle=orthogonalEdgeStyle;rounded=0;orthogonalLoop=1;jettySize=auto;html=1;entryX=0.25;entryY=1;entryDx=0;entryDy=0;" parent="1" source="3km9dsXEY4e5crO_H5-b-16" target="3km9dsXEY4e5crO_H5-b-1" edge="1">
          <mxGeometry relative="1" as="geometry" />
        </mxCell>
        <mxCell id="3km9dsXEY4e5crO_H5-b-16" value="" style="shape=waypoint;sketch=0;fillStyle=solid;size=6;pointerEvents=1;points=[];fillColor=none;resizable=0;rotatable=0;perimeter=centerPerimeter;snapToPoint=1;strokeColor=default;" parent="1" vertex="1">
          <mxGeometry x="160" y="390" width="20" height="20" as="geometry" />
        </mxCell>
        <mxCell id="3km9dsXEY4e5crO_H5-b-40" style="edgeStyle=orthogonalEdgeStyle;rounded=0;orthogonalLoop=1;jettySize=auto;html=1;exitDx=0;exitDy=0;entryX=0.25;entryY=0;entryDx=0;entryDy=0;" parent="1" source="3km9dsXEY4e5crO_H5-b-45" target="3km9dsXEY4e5crO_H5-b-37" edge="1">
          <mxGeometry relative="1" as="geometry" />
        </mxCell>
        <mxCell id="3km9dsXEY4e5crO_H5-b-19" value="SFBand Grouping" style="whiteSpace=wrap;html=1;rotation=0;" parent="1" vertex="1">
          <mxGeometry x="260" y="215" width="60" height="50" as="geometry" />
        </mxCell>
        <mxCell id="3km9dsXEY4e5crO_H5-b-39" style="edgeStyle=orthogonalEdgeStyle;rounded=0;orthogonalLoop=1;jettySize=auto;html=1;entryX=0.25;entryY=1;entryDx=0;entryDy=0;" parent="1" source="3km9dsXEY4e5crO_H5-b-41" target="3km9dsXEY4e5crO_H5-b-37" edge="1">
          <mxGeometry relative="1" as="geometry" />
        </mxCell>
        <mxCell id="3km9dsXEY4e5crO_H5-b-24" value="SFBand Grouping" style="whiteSpace=wrap;html=1;rotation=0;" parent="1" vertex="1">
          <mxGeometry x="260" y="375" width="60" height="50" as="geometry" />
        </mxCell>
        <mxCell id="3km9dsXEY4e5crO_H5-b-71" style="edgeStyle=orthogonalEdgeStyle;rounded=0;orthogonalLoop=1;jettySize=auto;html=1;exitX=1;exitY=0.25;exitDx=0;exitDy=0;entryX=0.25;entryY=1;entryDx=0;entryDy=0;" parent="1" source="3km9dsXEY4e5crO_H5-b-26" target="3km9dsXEY4e5crO_H5-b-47" edge="1">
          <mxGeometry relative="1" as="geometry" />
        </mxCell>
        <mxCell id="3km9dsXEY4e5crO_H5-b-72" style="edgeStyle=orthogonalEdgeStyle;rounded=0;orthogonalLoop=1;jettySize=auto;html=1;exitX=1;exitY=0.75;exitDx=0;exitDy=0;entryX=0.25;entryY=0;entryDx=0;entryDy=0;" parent="1" source="3km9dsXEY4e5crO_H5-b-26" target="3km9dsXEY4e5crO_H5-b-48" edge="1">
          <mxGeometry relative="1" as="geometry" />
        </mxCell>
        <mxCell id="3km9dsXEY4e5crO_H5-b-26" value="Bit Allocation" style="whiteSpace=wrap;html=1;" parent="1" vertex="1">
          <mxGeometry x="375" y="335" width="100" height="40" as="geometry" />
        </mxCell>
        <mxCell id="3km9dsXEY4e5crO_H5-b-30" style="edgeStyle=orthogonalEdgeStyle;rounded=0;orthogonalLoop=1;jettySize=auto;html=1;entryX=1;entryY=0.5;entryDx=0;entryDy=0;" parent="1" source="3km9dsXEY4e5crO_H5-b-28" target="3km9dsXEY4e5crO_H5-b-1" edge="1">
          <mxGeometry relative="1" as="geometry" />
        </mxCell>
        <mxCell id="3km9dsXEY4e5crO_H5-b-33" value="" style="edgeStyle=orthogonalEdgeStyle;rounded=0;orthogonalLoop=1;jettySize=auto;html=1;" parent="1" source="3km9dsXEY4e5crO_H5-b-28" target="3km9dsXEY4e5crO_H5-b-32" edge="1">
          <mxGeometry relative="1" as="geometry" />
        </mxCell>
        <mxCell id="3km9dsXEY4e5crO_H5-b-28" value="&lt;div&gt;$$R_{xx}^k$$&lt;/div&gt;" style="whiteSpace=wrap;html=1;" parent="1" vertex="1">
          <mxGeometry x="350" y="270" width="40" height="40" as="geometry" />
        </mxCell>
        <mxCell id="3km9dsXEY4e5crO_H5-b-35" value="" style="edgeStyle=orthogonalEdgeStyle;rounded=0;orthogonalLoop=1;jettySize=auto;html=1;" parent="1" source="3km9dsXEY4e5crO_H5-b-32" target="3km9dsXEY4e5crO_H5-b-34" edge="1">
          <mxGeometry relative="1" as="geometry" />
        </mxCell>
        <mxCell id="3km9dsXEY4e5crO_H5-b-32" value="$$\varphi_k$$" style="whiteSpace=wrap;html=1;" parent="1" vertex="1">
          <mxGeometry x="425" y="275" width="20" height="30" as="geometry" />
        </mxCell>
        <mxCell id="3km9dsXEY4e5crO_H5-b-38" style="edgeStyle=orthogonalEdgeStyle;rounded=0;orthogonalLoop=1;jettySize=auto;html=1;" parent="1" source="3km9dsXEY4e5crO_H5-b-34" target="3km9dsXEY4e5crO_H5-b-37" edge="1">
          <mxGeometry relative="1" as="geometry" />
        </mxCell>
        <mxCell id="3km9dsXEY4e5crO_H5-b-70" style="edgeStyle=orthogonalEdgeStyle;rounded=0;orthogonalLoop=1;jettySize=auto;html=1;exitX=0.5;exitY=1;exitDx=0;exitDy=0;entryX=0;entryY=0.5;entryDx=0;entryDy=0;" parent="1" source="3km9dsXEY4e5crO_H5-b-34" target="3km9dsXEY4e5crO_H5-b-62" edge="1">
          <mxGeometry relative="1" as="geometry" />
        </mxCell>
        <mxCell id="3km9dsXEY4e5crO_H5-b-34" value="$$Q$$" style="whiteSpace=wrap;html=1;" parent="1" vertex="1">
          <mxGeometry x="460" y="275" width="20" height="30" as="geometry" />
        </mxCell>
        <mxCell id="3km9dsXEY4e5crO_H5-b-49" style="edgeStyle=orthogonalEdgeStyle;rounded=0;orthogonalLoop=1;jettySize=auto;html=1;exitX=0.75;exitY=0;exitDx=0;exitDy=0;entryX=0;entryY=0.5;entryDx=0;entryDy=0;" parent="1" source="3km9dsXEY4e5crO_H5-b-37" target="3km9dsXEY4e5crO_H5-b-47" edge="1">
          <mxGeometry relative="1" as="geometry">
            <Array as="points">
              <mxPoint x="523" y="240" />
            </Array>
          </mxGeometry>
        </mxCell>
        <mxCell id="3km9dsXEY4e5crO_H5-b-135" style="edgeStyle=orthogonalEdgeStyle;rounded=0;orthogonalLoop=1;jettySize=auto;html=1;exitX=0.75;exitY=1;exitDx=0;exitDy=0;entryX=0;entryY=0.5;entryDx=0;entryDy=0;" parent="1" source="3km9dsXEY4e5crO_H5-b-37" target="3km9dsXEY4e5crO_H5-b-48" edge="1">
          <mxGeometry relative="1" as="geometry" />
        </mxCell>
        <mxCell id="3km9dsXEY4e5crO_H5-b-37" value="$$H_k$$" style="whiteSpace=wrap;html=1;" parent="1" vertex="1">
          <mxGeometry x="500" y="275" width="30" height="30" as="geometry" />
        </mxCell>
        <mxCell id="3km9dsXEY4e5crO_H5-b-42" value="" style="edgeStyle=orthogonalEdgeStyle;rounded=0;orthogonalLoop=1;jettySize=auto;html=1;entryDx=0;entryDy=0;endArrow=none;startFill=0;" parent="1" source="3km9dsXEY4e5crO_H5-b-24" target="3km9dsXEY4e5crO_H5-b-41" edge="1">
          <mxGeometry relative="1" as="geometry">
            <mxPoint x="320" y="400" as="sourcePoint" />
            <mxPoint x="508" y="305" as="targetPoint" />
          </mxGeometry>
        </mxCell>
        <mxCell id="3km9dsXEY4e5crO_H5-b-43" style="edgeStyle=orthogonalEdgeStyle;rounded=0;orthogonalLoop=1;jettySize=auto;html=1;entryX=0.25;entryY=1;entryDx=0;entryDy=0;" parent="1" source="3km9dsXEY4e5crO_H5-b-41" target="3km9dsXEY4e5crO_H5-b-28" edge="1">
          <mxGeometry relative="1" as="geometry" />
        </mxCell>
        <mxCell id="3km9dsXEY4e5crO_H5-b-41" value="" style="shape=waypoint;sketch=0;fillStyle=solid;size=6;pointerEvents=1;points=[];fillColor=none;resizable=0;rotatable=0;perimeter=centerPerimeter;snapToPoint=1;" parent="1" vertex="1">
          <mxGeometry x="350" y="390" width="20" height="20" as="geometry" />
        </mxCell>
        <mxCell id="3km9dsXEY4e5crO_H5-b-44" value="" style="edgeStyle=orthogonalEdgeStyle;rounded=0;orthogonalLoop=1;jettySize=auto;html=1;exitX=1;exitY=0.5;exitDx=0;exitDy=0;entryDx=0;entryDy=0;endArrow=none;startFill=0;" parent="1" source="3km9dsXEY4e5crO_H5-b-19" target="3km9dsXEY4e5crO_H5-b-45" edge="1">
          <mxGeometry relative="1" as="geometry">
            <mxPoint x="320" y="240" as="sourcePoint" />
            <mxPoint x="508" y="275" as="targetPoint" />
          </mxGeometry>
        </mxCell>
        <mxCell id="3km9dsXEY4e5crO_H5-b-46" style="edgeStyle=orthogonalEdgeStyle;rounded=0;orthogonalLoop=1;jettySize=auto;html=1;entryX=0.25;entryY=0;entryDx=0;entryDy=0;" parent="1" source="3km9dsXEY4e5crO_H5-b-45" target="3km9dsXEY4e5crO_H5-b-28" edge="1">
          <mxGeometry relative="1" as="geometry" />
        </mxCell>
        <mxCell id="3km9dsXEY4e5crO_H5-b-45" value="" style="shape=waypoint;sketch=0;fillStyle=solid;size=6;pointerEvents=1;points=[];fillColor=none;resizable=0;rotatable=0;perimeter=centerPerimeter;snapToPoint=1;" parent="1" vertex="1">
          <mxGeometry x="350" y="230" width="20" height="20" as="geometry" />
        </mxCell>
        <mxCell id="3km9dsXEY4e5crO_H5-b-60" style="edgeStyle=orthogonalEdgeStyle;rounded=0;orthogonalLoop=1;jettySize=auto;html=1;exitX=1;exitY=0.5;exitDx=0;exitDy=0;entryX=0;entryY=0.5;entryDx=0;entryDy=0;" parent="1" source="3km9dsXEY4e5crO_H5-b-47" target="3km9dsXEY4e5crO_H5-b-59" edge="1">
          <mxGeometry relative="1" as="geometry" />
        </mxCell>
        <mxCell id="3km9dsXEY4e5crO_H5-b-47" value="Scaling" style="whiteSpace=wrap;html=1;rotation=0;" parent="1" vertex="1">
          <mxGeometry x="550" y="220" width="50" height="40" as="geometry" />
        </mxCell>
        <mxCell id="3km9dsXEY4e5crO_H5-b-61" style="edgeStyle=orthogonalEdgeStyle;rounded=0;orthogonalLoop=1;jettySize=auto;html=1;exitX=1;exitY=0.5;exitDx=0;exitDy=0;entryX=0;entryY=0.5;entryDx=0;entryDy=0;" parent="1" source="3km9dsXEY4e5crO_H5-b-48" target="3km9dsXEY4e5crO_H5-b-58" edge="1">
          <mxGeometry relative="1" as="geometry" />
        </mxCell>
        <mxCell id="3km9dsXEY4e5crO_H5-b-48" value="Scaling" style="whiteSpace=wrap;html=1;rotation=0;" parent="1" vertex="1">
          <mxGeometry x="550" y="385" width="50" height="40" as="geometry" />
        </mxCell>
        <mxCell id="3km9dsXEY4e5crO_H5-b-51" value="&lt;div&gt;`X_L`&lt;/div&gt;" style="text;html=1;align=center;verticalAlign=middle;whiteSpace=wrap;rounded=0;" parent="1" vertex="1">
          <mxGeometry x="330" y="210" width="20" height="30" as="geometry" />
        </mxCell>
        <mxCell id="3km9dsXEY4e5crO_H5-b-52" value="&lt;div&gt;`X_R`&lt;/div&gt;" style="text;html=1;align=center;verticalAlign=middle;whiteSpace=wrap;rounded=0;" parent="1" vertex="1">
          <mxGeometry x="330" y="370" width="20" height="30" as="geometry" />
        </mxCell>
        <mxCell id="3km9dsXEY4e5crO_H5-b-55" value="&lt;div&gt;`X_M`&lt;/div&gt;" style="text;html=1;align=center;verticalAlign=middle;whiteSpace=wrap;rounded=0;" parent="1" vertex="1">
          <mxGeometry x="520" y="210" width="20" height="30" as="geometry" />
        </mxCell>
        <mxCell id="3km9dsXEY4e5crO_H5-b-56" value="&lt;div&gt;`X_S`&lt;/div&gt;" style="text;html=1;align=center;verticalAlign=middle;whiteSpace=wrap;rounded=0;" parent="1" vertex="1">
          <mxGeometry x="520" y="400" width="20" height="30" as="geometry" />
        </mxCell>
        <mxCell id="3km9dsXEY4e5crO_H5-b-68" style="edgeStyle=orthogonalEdgeStyle;rounded=0;orthogonalLoop=1;jettySize=auto;html=1;" parent="1" source="3km9dsXEY4e5crO_H5-b-58" target="3km9dsXEY4e5crO_H5-b-62" edge="1">
          <mxGeometry relative="1" as="geometry">
            <mxPoint x="620" y="352.5" as="targetPoint" />
          </mxGeometry>
        </mxCell>
        <mxCell id="3km9dsXEY4e5crO_H5-b-58" value="$$Q$$" style="whiteSpace=wrap;html=1;" parent="1" vertex="1">
          <mxGeometry x="610" y="390" width="20" height="30" as="geometry" />
        </mxCell>
        <mxCell id="3km9dsXEY4e5crO_H5-b-69" style="edgeStyle=orthogonalEdgeStyle;rounded=0;orthogonalLoop=1;jettySize=auto;html=1;exitX=0.5;exitY=1;exitDx=0;exitDy=0;entryX=0.5;entryY=0;entryDx=0;entryDy=0;" parent="1" source="3km9dsXEY4e5crO_H5-b-59" target="3km9dsXEY4e5crO_H5-b-62" edge="1">
          <mxGeometry relative="1" as="geometry" />
        </mxCell>
        <mxCell id="3km9dsXEY4e5crO_H5-b-59" value="$$Q$$" style="whiteSpace=wrap;html=1;" parent="1" vertex="1">
          <mxGeometry x="610" y="225" width="20" height="30" as="geometry" />
        </mxCell>
        <mxCell id="3km9dsXEY4e5crO_H5-b-73" style="edgeStyle=orthogonalEdgeStyle;rounded=0;orthogonalLoop=1;jettySize=auto;html=1;exitX=0.75;exitY=1;exitDx=0;exitDy=0;entryX=0.5;entryY=1;entryDx=0;entryDy=0;" parent="1" source="3km9dsXEY4e5crO_H5-b-62" target="3km9dsXEY4e5crO_H5-b-26" edge="1">
          <mxGeometry relative="1" as="geometry">
            <mxPoint x="642.5" y="352.5" as="sourcePoint" />
            <Array as="points">
              <mxPoint x="643" y="435" />
              <mxPoint x="425" y="435" />
            </Array>
          </mxGeometry>
        </mxCell>
        <mxCell id="3km9dsXEY4e5crO_H5-b-74" style="edgeStyle=orthogonalEdgeStyle;rounded=0;orthogonalLoop=1;jettySize=auto;html=1;exitX=1;exitY=0.5;exitDx=0;exitDy=0;" parent="1" source="3km9dsXEY4e5crO_H5-b-62" edge="1">
          <mxGeometry relative="1" as="geometry">
            <mxPoint x="690" y="320" as="targetPoint" />
          </mxGeometry>
        </mxCell>
        <mxCell id="3km9dsXEY4e5crO_H5-b-62" value="Data Partitioning" style="whiteSpace=wrap;html=1;" parent="1" vertex="1">
          <mxGeometry x="575" y="292.5" width="90" height="55" as="geometry" />
        </mxCell>
        <mxCell id="3km9dsXEY4e5crO_H5-b-76" value="&lt;div&gt;$$\hat{\varphi}_k$$&lt;/div&gt;" style="text;html=1;align=center;verticalAlign=middle;whiteSpace=wrap;rounded=0;fontSize=10;" parent="1" vertex="1">
          <mxGeometry x="452" y="300" width="20" height="30" as="geometry" />
        </mxCell>
        <mxCell id="3km9dsXEY4e5crO_H5-b-77" value="SMR" style="text;html=1;align=center;verticalAlign=middle;whiteSpace=wrap;rounded=0;fontSize=10;" parent="1" vertex="1">
          <mxGeometry x="290" y="328" width="20" height="30" as="geometry" />
        </mxCell>
      </root>
    </mxGraphModel>
  </diagram>
</mxfile>
